<?xml version="1.0" encoding="UTF-8" standalone="no"?>
<svg
   xmlns:dc="http://purl.org/dc/elements/1.1/"
   xmlns:cc="http://creativecommons.org/ns#"
   xmlns:rdf="http://www.w3.org/1999/02/22-rdf-syntax-ns#"
   xmlns:svg="http://www.w3.org/2000/svg"
   xmlns="http://www.w3.org/2000/svg"
   xmlns:xlink="http://www.w3.org/1999/xlink"
   xmlns:sodipodi="http://sodipodi.sourceforge.net/DTD/sodipodi-0.dtd"
   xmlns:inkscape="http://www.inkscape.org/namespaces/inkscape"
   version="1.1"
   x="0px"
   y="0px"
   viewBox="-255 347 386.34373 406.34816"
   enable-background="new -255 347 100 100"
   xml:space="preserve"
   id="svg2"
   inkscape:version="0.91 r13725"
   sodipodi:docname="ThreadBear_with_title.svg"
   width="386.34375"
   height="406.34821"><metadata
     id="metadata20"><rdf:RDF><cc:Work
         rdf:about=""><dc:format>image/svg+xml</dc:format><dc:type
           rdf:resource="http://purl.org/dc/dcmitype/StillImage" /><dc:title></dc:title></cc:Work></rdf:RDF></metadata><defs
     id="defs18"><linearGradient
       inkscape:collect="always"
       id="linearGradient4153"><stop
         style="stop-color:#54a3fd;stop-opacity:1"
         offset="0"
         id="stop4155" /><stop
         style="stop-color:#006099;stop-opacity:1"
         offset="1"
         id="stop4157" /></linearGradient><linearGradient
       inkscape:collect="always"
       xlink:href="#linearGradient4153"
       id="linearGradient4214"
       gradientUnits="userSpaceOnUse"
       gradientTransform="translate(-113.08901,-1.0471204)"
       x1="-173.53821"
       y1="369.28845"
       x2="-220.8589"
       y2="427.1416" /></defs><sodipodi:namedview
     pagecolor="#ffffff"
     bordercolor="#666666"
     borderopacity="1"
     objecttolerance="10"
     gridtolerance="10"
     guidetolerance="10"
     inkscape:pageopacity="0"
     inkscape:pageshadow="2"
     inkscape:window-width="1440"
     inkscape:window-height="802"
     id="namedview16"
     showgrid="false"
     inkscape:zoom="1"
     inkscape:cx="175.17155"
     inkscape:cy="236.91782"
     inkscape:window-x="0"
     inkscape:window-y="1"
     inkscape:window-maximized="1"
     inkscape:current-layer="svg2"
     fit-margin-top="0"
     fit-margin-left="0"
     fit-margin-right="0"
     fit-margin-bottom="0" /><g
     inkscape:export-ydpi="99.639999"
     inkscape:export-xdpi="99.639999"
     id="g4206"
     transform="matrix(4.3207838,0,0,4.3207838,1302.9637,-1160.7334)"><path
       style="fill:#000000;fill-opacity:1"
       d="m -319.12109,348.96484 c -18.19828,0.97521 -36.29515,14.02769 -40.77735,32.05274 -0.15828,2.64825 -2.40054,9.62512 2.26953,6.12695 9.25802,-4.02479 19.23232,-7.38034 29.47852,-6.23437 0.10448,-6.11711 9.76139,-6.82067 10.28125,-0.58399 1.7892,3.10735 7.42044,3.20112 10.54687,5.66797 2.27593,1.27463 5.66169,2.76201 5.23243,5.91602 3.92905,1.01068 11.36715,0.22466 8.5332,6.11718 -2.72352,8.23367 -12.43028,6.21231 -18.94636,8.38201 -14.39017,3.82883 -26.82448,14.03317 -33.63372,27.24885 18.1678,14.26237 46.61067,11.90832 62.1543,-5.17968 16.53248,-16.69267 17.16905,-45.86345 1.38672,-63.26563 -8.99071,-10.48141 -22.71082,-16.61748 -36.52539,-16.24805 z"
       id="path4208"
       inkscape:connector-curvature="0" /><path
       sodipodi:nodetypes="scscscccccsccsss"
       style="fill:url(#linearGradient4214);fill-opacity:1"
       inkscape:connector-curvature="0"
       id="path4210"
       d="m -318.18901,350.95288 c -19.34125,0 -39.8316,17.70249 -40.18354,34.33665 7.87974,-3.13416 5.95756,-2.58169 7.87974,-3.13416 7.72911,-2.22151 10.56185,-3.8011 20.9038,-3.30249 0.8,-2.9 3.5,-5 6.7,-5 3.6,0 6.6,2.7 7,6.2 4.7,1.6 9.5,3.9 13.5,6.6 1.1,0.8 2.3,3.4 2.3,3.4 l 0,0.2 9,1.7 0,3.3 c 0,6.3 -5.7,11.5 -12,11.5 -17.3,1.5 -32.4,11.8 -40.4,26.3 7.3,5.1 16,8 25.5,8 24.9,0 44.9,-20.1 44.9,-45 0,-24.9 -20.2,-45.1 -45.1,-45.1 z" /><circle
       id="circle4212"
       r="2.5"
       cy="389.45288"
       cx="-311.58902" /></g></svg>